<svg xmlns="http://www.w3.org/2000/svg" width="90.000000pt" height="126.000000pt" viewBox="0 0 90.000000 126.000000" preserveAspectRatio="xMidYMid meet"><g transform="translate(0.000000,126.000000) scale(0.100000,-0.100000)" fill="#F9F9F9" stroke="none"><path d="M113 1240 c-59 -36 -92 -106 -108 -227 -6 -49 -5 -53 14 -53 16 0 21 6 21 25 0 40 37 103 70 120 47 24 113 20 149 -11 34 -28 50 -72 97 -267 l29 -119 -173 -338 c-94 -185 -172 -340 -172 -344 0 -3 36 -6 79 -6 l79 0 118 232 c94 186 119 229 125 213 5 -11 22 -76 39 -144 59 -235 120 -321 231 -321 100 0 188 123 189 263 0 31 -3 38 -17 35 -10 -2 -20 -16 -23 -33 -19 -89 -65 -129 -151 -130 -48 0 -62 4 -84 25 -41 38 -54 70 -100 249 l-43 166 170 333 169 332 -84 0 c-72 0 -86 -3 -92 -17 -3 -10 -54 -110 -112 -222 l-106 -204 -43 172 c-45 185 -70 236 -127 271 -41 25 -103 25 -144 0z"></path></g></svg>