<?xml version="1.0" encoding="UTF-8"?>
<svg id="Layer_1" data-name="Layer 1" xmlns="http://www.w3.org/2000/svg" viewBox="0 0 1293.38 442.36">
  <defs>
    <style>
      .cls-1 {
        fill: #262262;
      }
    </style>
  </defs>
  <path class="cls-1" d="M617.07,5.34l-117.15,228.64,20.1,79.77c8.17,32.66,16.33,53.08,24.5,61.24,8.17,8.17,19.05,12.25,32.66,12.25,15.7,0,28.21-4.5,37.53-13.51,9.31-9,14.81-23.45,16.48-43.34h11.62c.21,5.23.31,9.21.31,11.93,0,26.59-8.06,49.83-24.18,69.72-10.47,13.19-24.08,19.79-40.83,19.79-11.73,0-22.19-3.09-31.41-9.26-9.21-6.18-16.75-15.34-22.61-27.48-9.21-19.68-15.49-36.43-18.84-50.25l-20.1-81.97-83.54,163h-54.96l120.29-236.8-23.24-92.65c-5.03-20.31-11.05-33.61-18.06-39.89-7.02-6.28-16.91-9.42-29.68-9.42-14.03,0-25.33,4.4-33.92,13.19-8.58,8.79-13.71,22.93-15.39,42.4h-10.99c.84-36.85,8.27-64.38,22.3-82.6,10.26-13.4,23.45-20.1,39.57-20.1s29.84,5.97,39.26,17.9c9.42,11.93,16.54,27.74,21.36,47.42l23.24,95.48L560.54,5.34h56.53Z"/>
  <path class="cls-1" d="M0,344.16V99.57h37.08v34.32c7.68-11.98,17.89-21.61,30.63-28.9,12.74-7.29,27.25-10.94,43.53-10.94,18.12,0,32.97,3.76,44.57,11.28,11.58,7.52,19.76,18.04,24.52,31.55,19.35-28.56,44.53-42.84,75.54-42.84,24.26,0,42.92,6.72,55.97,20.16,13.05,13.44,19.58,34.12,19.58,62.07v167.9h-41.23v-154.08c0-16.58-1.35-28.52-4.03-35.81-2.69-7.29-7.57-13.17-14.63-17.62-7.06-4.45-15.35-6.68-24.87-6.68-17.2,0-31.48,5.72-42.84,17.15-11.36,11.45-17.04,29.75-17.04,54.93v142.1h-41.46v-158.92c0-18.42-3.38-32.24-10.13-41.46-6.76-9.21-17.81-13.82-33.16-13.82-11.67,0-22.46,3.07-32.36,9.21-9.91,6.14-17.08,15.12-21.54,26.95-4.45,11.82-6.68,28.87-6.68,51.13v126.9H0Z"/>
  <g>
    <path class="cls-1" d="M661.17,348.62V104.02h37.31v37.09c9.52-17.35,18.31-28.8,26.37-34.32,8.07-5.53,16.93-8.29,26.6-8.29,13.97,0,28.17,4.45,42.61,13.36l-14.28,38.47c-10.13-6-20.27-8.99-30.4-8.99-9.06,0-17.2,2.72-24.41,8.18-7.22,5.44-12.36,13.01-15.43,22.68-4.61,14.74-6.91,30.86-6.91,48.37v128.05h-41.46Z"/>
    <path class="cls-1" d="M978.31,318.44c-15.35,13.06-30.14,22.28-44.34,27.64-14.2,5.37-29.44,8.07-45.71,8.07-26.87,0-47.52-6.56-61.95-19.69-14.43-13.12-21.65-29.9-21.65-50.32,0-11.98,2.72-22.92,8.17-32.82,5.45-9.91,12.59-17.85,21.43-23.84,8.82-5.99,18.77-10.51,29.82-13.58,8.14-2.15,20.42-4.23,36.85-6.22,33.47-3.99,58.12-8.75,73.93-14.28.15-5.68.23-9.28.23-10.82,0-16.89-3.91-28.8-11.75-35.7-10.59-9.37-26.33-14.04-47.21-14.04-19.5,0-33.9,3.41-43.18,10.25-9.3,6.83-16.16,18.93-20.62,36.27l-40.53-5.53c3.68-17.34,9.75-31.35,18.19-42.03,8.45-10.66,20.65-18.89,36.62-24.64,15.97-5.76,34.47-8.64,55.51-8.64s37.85,2.46,50.9,7.37c13.05,4.91,22.65,11.1,28.79,18.54,6.14,7.45,10.44,16.86,12.9,28.21,1.38,7.08,2.07,19.82,2.07,38.25v55.28c0,38.54.88,62.91,2.65,73.11,1.76,10.22,5.25,20,10.48,29.37h-43.3c-4.3-8.6-7.06-18.65-8.29-30.18ZM974.86,225.87c-15.05,6.14-37.62,11.36-67.71,15.66-17.04,2.46-29.1,5.22-36.16,8.29-7.06,3.07-12.51,7.55-16.35,13.47-3.84,5.9-5.76,12.48-5.76,19.69,0,11.05,4.18,20.27,12.56,27.64,8.36,7.37,20.61,11.05,36.73,11.05s30.17-3.5,42.61-10.48c12.44-6.99,21.57-16.54,27.41-28.68,4.45-9.35,6.68-23.17,6.68-41.46v-15.19Z"/>
    <path class="cls-1" d="M1081.03,442.36V104.02h37.77v31.78c8.9-12.44,18.96-21.76,30.17-27.99,11.21-6.21,24.8-9.32,40.77-9.32,20.88,0,39.31,5.37,55.28,16.12,15.97,10.75,28.02,25.91,36.16,45.49,8.14,19.57,12.21,41.04,12.21,64.36,0,25.04-4.49,47.57-13.48,67.6-8.97,20.04-22.03,35.4-39.15,46.06-17.12,10.68-35.12,16.01-54,16.01-13.82,0-26.22-2.92-37.2-8.75-10.98-5.83-19.99-13.2-27.06-22.11v119.08h-41.46ZM1118.57,227.71c0,31.48,6.37,54.73,19.12,69.78,12.74,15.05,28.17,22.57,46.29,22.57s34.2-7.79,47.33-23.38c13.12-15.58,19.69-39.73,19.69-72.43s-6.41-54.51-19.23-70.01c-12.83-15.51-28.14-23.26-45.95-23.26s-33.28,8.25-46.87,24.75c-13.58,16.51-20.38,40.51-20.38,71.98Z"/>
  </g>
</svg>