<svg id="Layer_1" data-name="Layer 1" xmlns="http://www.w3.org/2000/svg" viewBox="0 0 21.51 30.21"><defs><style>.cls-1{fill:#262262;}</style></defs><title>X Only</title><path class="cls-1" d="M19.69.37l-8.2,16L12.9,22c.57,2.29,1.14,3.71,1.71,4.29a3.09,3.09,0,0,0,2.29.85,3.6,3.6,0,0,0,2.62-.94,4.66,4.66,0,0,0,1.16-3h.81c0,.36,0,.64,0,.83a7.51,7.51,0,0,1-1.69,4.88A3.49,3.49,0,0,1,17,30.21a3.77,3.77,0,0,1-2.19-.65,4.65,4.65,0,0,1-1.59-1.92,19.54,19.54,0,0,1-1.31-3.51l-1.41-5.74L4.61,29.79H.77L9.18,13.23,7.56,6.75A5.74,5.74,0,0,0,6.3,4,3.08,3.08,0,0,0,4.22,3.3a3.14,3.14,0,0,0-2.37.92,4.74,4.74,0,0,0-1.08,3H0A9.79,9.79,0,0,1,1.56,1.41,3.34,3.34,0,0,1,4.33,0,3.33,3.33,0,0,1,7.08,1.25,8.81,8.81,0,0,1,8.57,4.57l1.63,6.68L15.73.37Z"/></svg>