<svg xmlns="http://www.w3.org/2000/svg" xmlns:xlink="http://www.w3.org/1999/xlink" width="120px" height="137px" viewBox="0 0 120 137"><title>Branding / Logo Icon Full Colour Contained</title><desc>Created with Sketch.</desc><defs><polygon id="path-1" points="0.0007 0.354 119.4307 0.354 119.4307 134.9998 0.0007 134.9998"></polygon></defs><g id="Branding-/-Logo-Icon-Full-Colour-Contained" stroke="none" stroke-width="1" fill="none" fill-rule="evenodd"><g id="Logo-Group"><g id="Branding-/-Logo-Icon"><g id="Logo-Group"><g id="Group-3" transform="translate(0.000000, 0.646000)"><mask id="mask-2" fill="white"><use xlink:href="#path-1"></use></mask><g id="Clip-2"></g><path d="M119.4307,96.0668 C119.4307,97.9488 118.9277,99.7618 118.0197,101.3388 C117.1077,102.9158 115.7917,104.2558 114.1587,105.1958 L64.9877,133.5878 C63.3567,134.5278 61.5347,134.9998 59.7157,134.9998 C57.8957,134.9998 56.0757,134.5278 54.4437,133.5878 L24.2477,116.1538 L24.2477,115.8818 L24.2107,115.9318 L24.1347,116.0348 L24.2087,116.1318 L5.2727,105.1958 C3.6397,104.2558 2.3237,102.9158 1.4107,101.3388 C0.5037,99.7618 0.0007,97.9488 0.0007,96.0668 L0.0007,39.2878 C0.0007,37.4048 0.5037,35.5928 1.4107,34.0148 C2.3237,32.4388 3.6397,31.0978 5.2727,30.1578 L54.4437,1.7658 C56.0757,0.8258 57.8957,0.3538 59.7157,0.3538 C61.5347,0.3538 63.3567,0.8258 64.9877,1.7658 L114.1587,30.1578 C115.7917,31.0978 117.1077,32.4388 118.0197,34.0148 C118.9277,35.5928 119.4307,37.4048 119.4307,39.2878 L119.4307,96.0668" id="Fill-1" fill="#D71B59" mask="url(#mask-2)"></path></g><polygon id="Fill-4" fill="#252960" points="83.7285 123.141 59.7145 68.323 59.7145 109.277"></polygon><path d="M83.9639,123.2767 L114.1599,105.8437 C115.7909,104.9017 117.1089,103.5607 118.0189,101.9847 L59.7159,68.3227 L83.7289,123.1407 L83.9639,123.2767" id="Fill-6" fill="#2A367F"></path><path d="M83.7803,123.2006 L59.7403,109.3226 L59.7403,135.6456 C61.5613,135.6456 63.3823,135.1746 65.0123,134.2336 L83.9493,123.2996 L83.8313,123.3156 L83.7803,123.2006" id="Fill-8" fill="#2D0F2B"></path><polygon id="Fill-10" fill="#F07322" points="35.7022 13.5052 59.7152 68.3232 59.7152 27.3692"></polygon><path d="M35.4678,13.3695 L5.2718,30.8035 C3.6408,31.7445 2.3218,33.0855 1.4118,34.6615 L59.7158,68.3235 L35.7018,13.5055 L35.4678,13.3695" id="Fill-12" fill="#FDC213"></path><path d="M35.626,13.3314 L35.677,13.4454 L59.716,27.3244 L59.716,27.3694 L59.716,1.0004 C57.896,1.0004 56.075,1.4714 54.444,2.4134 L35.507,13.3474 L35.626,13.3314" id="Fill-14" fill="#B61E4F"></path><polygon id="Fill-16" fill="#038E7F" points="95.2217 88.8226 95.1837 88.8006 119.1967 74.9356 59.7147 68.3226"></polygon><path d="M119.1963,74.9359 L119.4313,74.8009 L119.4313,39.9329 C119.4313,38.0499 118.9283,36.2379 118.0183,34.6619 L59.7163,68.3229 L119.1963,74.9359" id="Fill-18" fill="#00A797"></path><path d="M119.2608,74.9427 L95.2218,88.8227 L118.0188,101.9847 C118.9288,100.4087 119.4318,98.5967 119.4318,96.7127 L119.4318,74.8457 L119.3848,74.9577 L119.2608,74.9427" id="Fill-20" fill="#252960"></path><polygon id="Fill-22" fill="#A81F23" points="24.21 47.8241 24.248 47.8461 0.234 61.7101 59.716 68.3231"></polygon><path d="M24.2481,88.8002 L24.2481,88.8002 L59.7151,68.3232 L0.2351,61.7102 L0.0001,61.8452 L0.0001,96.7132 C0.0001,98.5962 0.5021,100.4082 1.4121,101.9852 L23.4671,89.2512 L24.2481,88.8002" id="Fill-24" fill="#E92127"></path><path d="M0.1709,61.703 L24.2099,47.824 L1.4119,34.662 C0.5029,36.239 0.0009,38.05 0.0009,39.933 L0.0009,61.801 L0.0469,61.69 L0.1709,61.703" id="Fill-26" fill="#F07322"></path><polygon id="Fill-28" fill="#B61E4F" points="95.1836 20.1185 59.7156 68.3235 95.1836 47.8465"></polygon><path d="M95.1836,19.8461 L64.9866,2.4131 C63.3566,1.4721 61.5366,1.0001 59.7156,1.0001 L59.7156,68.3231 L95.1836,20.1181 L95.1836,19.8461" id="Fill-30" fill="#D71B59"></path><path d="M114.1592,30.8031 L95.2222,19.8681 L95.2962,19.9651 L95.2222,20.0651 L95.2222,47.8241 L95.1832,47.8461 L118.0182,34.6611 C117.1082,33.0851 115.7912,31.7441 114.1592,30.8031" id="Fill-32" fill="#038E7F"></path><polygon id="Fill-34" fill="#2D0F2B" points="24.2481 88.8002 24.2481 116.5282 59.7151 68.3232"></polygon><path d="M59.7158,109.2767 L59.7158,68.3227 L24.2478,116.5277 L24.2478,116.7997 L54.4438,134.2327 C56.0748,135.1747 57.8958,135.6457 59.7158,135.6457 L59.7158,109.2767" id="Fill-36" fill="#470F45"></path><path d="M5.2715,105.8436 L24.2095,116.7776 L24.1355,116.6816 L24.2485,116.5286 L24.2095,116.5816 L24.2095,88.8226 L24.2485,88.8006 L23.4665,89.2516 L1.4135,101.9846 C2.3225,103.5606 3.6405,104.9016 5.2715,105.8436" id="Fill-38" fill="#A81F23"></path></g></g><path d="M61.3090978,56 C65.2817469,56 68.224192,58.977 68.224192,62.695 L68.224192,62.695 L68.224192,62.732 C68.224192,66.45 65.2449539,69.465 61.2713104,69.465 C57.2986614,69.465 54.3562162,66.487 54.3562162,62.769 L54.3562162,62.769 L54.3562162,62.732 C54.3562162,59.014 57.3354544,56 61.3090978,56 Z M44.6457494,56.0361 C46.833441,56.0361 48.5448124,56.6281 49.9409574,57.7571 L49.9409574,57.7571 L48.1569944,60.2901 C46.980613,59.4401 45.6938525,59.0141 44.5522753,59.0141 C43.6881371,59.0141 43.2645205,59.3661 43.2645205,59.8471 L43.2645205,59.8471 L43.2645205,59.8841 C43.2645205,60.4751 43.7070308,60.7341 45.5088932,61.1411 C48.4513383,61.7891 50.2919825,62.7501 50.2919825,65.1731 L50.2919825,65.1731 L50.2919825,65.2101 C50.2919825,67.8551 48.2136755,69.4281 45.0862709,69.4281 C42.8051053,69.4281 40.6532123,68.7061 39.0542086,67.2821 L39.0542086,67.2821 L41.0390415,64.8961 C42.3277907,65.9131 43.7249301,66.4501 45.2145492,66.4501 C46.1900608,66.4501 46.7041683,66.1171 46.7041683,65.5621 L46.7041683,65.5621 L46.7041683,65.5251 C46.7041683,64.9701 46.2815461,64.6931 44.5154823,64.2671 C41.7749014,63.6381 39.6598014,62.8611 39.6598014,60.2171 L39.6598014,60.2171 L39.6598014,60.1801 C39.6598014,57.7751 41.5541434,56.0361 44.6457494,56.0361 Z M87.7763872,56.2581 L90.7009331,64.4521 L93.6433783,56.2581 L97.5424413,56.2581 L92.3198249,69.2981 L89.0084553,69.2981 L83.8027438,56.2581 L87.7763872,56.2581 Z M15.087749,56.258 C17.055677,56.258 18.4160234,56.776 19.2801616,57.646 C20.0349152,58.404 20.4217389,59.384 20.4217389,60.661 L20.4217389,60.661 L20.4217389,60.698 C20.4217389,62.695 19.3726413,64.008 17.7726432,64.693 L17.7726432,64.693 L20.8443611,69.206 L16.7434338,69.206 L14.1490305,65.284 L12.5669317,65.284 L12.5669317,69.206 L9,69.206 L9,56.258 Z M35.3373206,56.2581 L35.3373206,59.2911 L28.5137117,59.2911 L28.5137117,61.2701 L34.6939404,61.2701 L34.6939404,64.1001 L28.5137117,64.1001 L28.5137117,66.1531 L35.4298003,66.1531 L35.4298003,69.2051 L24.9825786,69.2051 L24.9825786,56.2581 L35.3373206,56.2581 Z M76.3908447,56.2583 L76.3908447,66.0613 L82.6257657,66.0613 L82.6257657,69.2053 L72.8229186,69.2053 L72.8229186,56.2583 L76.3908447,56.2583 Z M111.90752,56.2583 L111.90752,59.2913 L105.083911,59.2913 L105.083911,61.2703 L111.26414,61.2703 L111.26414,64.1003 L105.083911,64.1003 L105.083911,66.1533 L112,66.1533 L112,69.2053 L101.552778,69.2053 L101.552778,56.2583 L111.90752,56.2583 Z M61.2713104,59.236 C59.3033824,59.236 57.9977283,60.827 57.9977283,62.695 L57.9977283,62.695 L57.9977283,62.732 C57.9977283,64.6 59.3401754,66.228 61.3090978,66.228 C63.2591266,66.228 64.5647807,64.637 64.5647807,62.769 L64.5647807,62.769 L64.5647807,62.732 C64.5647807,60.846 63.2402329,59.236 61.2713104,59.236 Z M14.9216833,59.347 L12.5669317,59.347 L12.5669317,62.473 L14.940577,62.473 C16.1348578,62.473 16.8528184,61.881 16.8528184,60.938 L16.8528184,60.938 L16.8528184,60.901 C16.8528184,59.865 16.0990592,59.347 14.9216833,59.347 L14.9216833,59.347 Z" id="Resolve" fill="#FEFEFE"></path><path d="M61.2294819,73.0002229 C63.419706,73.0002229 64.8896738,74.7210869 64.8896738,76.7105573 L64.8896738,76.7105573 L64.8896738,76.7311765 C64.8896738,78.7206469 63.3991432,80.4621301 61.208919,80.4621301 C59.0192507,80.4621301 57.5492829,78.741266 57.5492829,76.7517956 L57.5492829,76.7517956 L57.5492829,76.7311765 C57.5492829,74.7417061 59.0392578,73.0002229 61.2294819,73.0002229 Z M93.5782199,73.0002229 C95.7678882,73.0002229 97.2384117,74.7210869 97.2384117,76.7105573 L97.2384117,76.7105573 L97.2384117,76.7311765 C97.2384117,78.7206469 95.7473254,80.4621301 93.5582127,80.4621301 C91.3685444,80.4621301 89.8991324,78.741266 89.8991324,76.7517956 L89.8991324,76.7517956 L89.8991324,76.7311765 C89.8991324,74.7417061 91.3891072,73.0002229 93.5782199,73.0002229 Z M43.4361477,73 C44.6488016,73 45.3990687,73.3499685 46.1187694,73.9585123 L46.1187694,73.9585123 L45.5941382,74.5765299 C45.0394963,74.0922583 44.42261,73.7523207 43.4050255,73.7523207 C41.8116805,73.7523207 40.6707188,75.1025971 40.6707188,76.7103344 L40.6707188,76.7103344 L40.6707188,76.7309536 C40.6707188,78.4523749 41.7711105,79.7302056 43.5178435,79.7302056 C44.3409142,79.7302056 45.1017406,79.4108872 45.5941382,79.0090922 L45.5941382,79.0090922 L45.5941382,77.2152252 L43.4050255,77.2152252 L43.4050255,76.4835236 L46.3760832,76.4835236 L46.3760832,79.359618 C45.7080676,79.9570163 44.6999309,80.4619072 43.487277,80.4619072 C41.2259165,80.4619072 39.8276409,78.8129316 39.8276409,76.7515727 L39.8276409,76.7515727 L39.8276409,76.7309536 C39.8276409,74.7520714 41.2776015,73 43.4361477,73 Z M73.4625589,73.1234363 L73.4625589,77.2673304 C73.4625589,78.8232411 74.2950775,79.6992768 75.6622309,79.6992768 C76.9877027,79.6992768 77.8307806,78.8956868 77.8307806,77.3185997 L77.8307806,77.3185997 L77.8307806,73.1234363 L78.6427364,73.1234363 L78.6427364,77.2567422 C78.6427364,79.3593393 77.4406418,80.4521548 75.641668,80.4521548 C73.8627014,80.4521548 72.6506032,79.3593393 72.6506032,77.3185997 L72.6506032,77.3185997 L72.6506032,73.1234363 L73.4625589,73.1234363 Z M109.254022,73.0201733 C110.302729,73.0201733 111.052996,73.3194298 111.7827,73.9067973 L111.7827,73.9067973 L111.310866,74.535403 C110.641183,73.9892739 109.973723,73.7524322 109.234015,73.7524322 C108.298682,73.7524322 107.701803,74.2673539 107.701803,74.9171361 L107.701803,74.9171361 L107.701803,74.9377553 C107.701803,75.6176303 108.071935,75.9993635 109.655276,76.339301 C111.259736,76.6898267 112,77.2771942 112,78.3800406 L112,78.3800406 L112,78.4006598 C112,79.6378094 110.970745,80.4413994 109.541903,80.4413994 C108.401497,80.4413994 107.465608,80.0602236 106.602523,79.2872837 L106.602523,79.2872837 L107.106036,78.689328 C107.856303,79.3697604 108.576003,79.7096979 109.573025,79.7096979 C110.538924,79.7096979 111.176373,79.1947761 111.176373,78.4831364 L111.176373,78.4831364 L111.176373,78.4625173 C111.176373,77.7926732 110.816801,77.4114973 109.305708,77.0916217 C107.650674,76.731065 106.889848,76.1949668 106.889848,75.0096437 L106.889848,75.0096437 L106.889848,74.9890246 C106.889848,73.855528 107.886869,73.0201733 109.254022,73.0201733 Z M53.468608,73.0201733 C54.5167589,73.0201733 55.2675818,73.3194298 55.9967302,73.9067973 L55.9967302,73.9067973 L55.5248956,74.535403 C54.8557685,73.9892739 54.1877529,73.7524322 53.4480452,73.7524322 C52.5132679,73.7524322 51.9163888,74.2673539 51.9163888,74.9171361 L51.9163888,74.9171361 L51.9163888,74.9377553 C51.9163888,75.6176303 52.2865206,75.9993635 53.869862,76.339301 C55.4732105,76.6898267 56.2134741,77.2771942 56.2134741,78.3800406 L56.2134741,78.3800406 L56.2134741,78.4006598 C56.2134741,79.6378094 55.1847745,80.4413994 53.7564883,80.4413994 C52.6155266,80.4413994 51.6807493,80.0602236 50.8171086,79.2872837 L50.8171086,79.2872837 L51.3189539,78.689328 C52.0708882,79.3697604 52.7905889,79.7096979 53.7876105,79.7096979 C54.7535099,79.7096979 55.3904033,79.1947761 55.3904033,78.4831364 L55.3904033,78.4831364 L55.3904033,78.4625173 C55.3904033,77.7926732 55.0313866,77.4114973 53.5197373,77.0916217 C51.8652595,76.731065 51.1044331,76.1949668 51.1044331,75.0096437 L51.1044331,75.0096437 L51.1044331,74.9890246 C51.1044331,73.855528 52.1014547,73.0201733 53.468608,73.0201733 Z M21.6748454,73.1235478 L26.2075701,78.9058292 L26.2075701,73.1235478 L26.9995187,73.1235478 L26.9995187,80.3385823 L26.3515102,80.3385823 L21.7048561,74.4225549 L21.7048561,80.3385823 L20.914019,80.3385823 L20.914019,73.1235478 L21.6748454,73.1235478 Z M9.82251503,73.1234921 L12.443448,77.0611945 L15.0649368,73.1234921 L15.8868961,73.1234921 L15.8868961,80.3385266 L15.0749404,80.3385266 L15.0749404,74.4943876 L12.4540074,78.3596444 L12.4128816,78.3596444 L9.79139284,74.5044186 L9.79139284,80.3385266 L9,80.3385266 L9,73.1234921 L9.82251503,73.1234921 Z M18.8067133,73.1236035 L18.8067133,80.338638 L17.9947576,80.338638 L17.9947576,73.1236035 L18.8067133,73.1236035 Z M29.9184467,73.1236035 L29.9184467,80.338638 L29.106491,80.338638 L29.106491,73.1236035 L29.9184467,73.1236035 Z M32.78669,73.1235478 L37.3194147,78.9058292 L37.3194147,73.1235478 L38.1113633,73.1235478 L38.1113633,80.3385823 L37.4633548,80.3385823 L32.8167007,74.4225549 L32.8167007,80.3385823 L32.0258636,80.3385823 L32.0258636,73.1235478 L32.78669,73.1235478 Z M67.4174625,73.1235478 L67.4174625,79.5862615 L71.4672375,79.5862615 L71.4672375,80.3385823 L66.6055068,80.3385823 L66.6055068,73.1235478 L67.4174625,73.1235478 Z M85.7041946,73.1236035 L85.7041946,73.8759242 L83.2888903,73.8759242 L83.2888903,80.338638 L82.4663753,80.338638 L82.4663753,73.8759242 L80.051071,73.8759242 L80.051071,73.1236035 L85.7041946,73.1236035 Z M88.1108291,73.1236035 L88.1108291,80.338638 L87.2988734,80.338638 L87.2988734,73.1236035 L88.1108291,73.1236035 Z M99.7159048,73.1235478 L104.24863,78.9058292 L104.24863,73.1235478 L105.040022,73.1235478 L105.040022,80.3385823 L104.39257,80.3385823 L99.7464712,74.4225549 L99.7464712,80.3385823 L98.9556342,80.3385823 L98.9556342,73.1235478 L99.7159048,73.1235478 Z M61.208919,73.7525436 C59.563889,73.7525436 58.3918051,75.0716127 58.3918051,76.7105573 L58.3918051,76.7105573 L58.3918051,76.7311765 C58.3918051,78.3701211 59.5844519,79.7098093 61.2294819,79.7098093 C62.8739562,79.7098093 64.0465959,78.3907403 64.0465959,76.7517956 L64.0465959,76.7517956 L64.0465959,76.7311765 C64.0465959,75.0916746 62.8533933,73.7525436 61.208919,73.7525436 Z M93.5582127,73.7525436 C91.9137384,73.7525436 90.7416545,75.0716127 90.7416545,76.7105573 L90.7416545,76.7105573 L90.7416545,76.7311765 C90.7416545,78.3701211 91.9337456,79.7098093 93.5782199,79.7098093 C95.2238057,79.7098093 96.3947781,78.3907403 96.3947781,76.7517956 L96.3947781,76.7517956 L96.3947781,76.7311765 C96.3947781,75.0916746 95.202687,73.7525436 93.5582127,73.7525436 Z" id="Mining-Solutions" fill="#FEFEFE"></path></g></g></svg>